<?xml version="1.0" encoding="UTF-8"?>
<svg width="24px" height="24px" viewBox="0 0 24 24" version="1.1" xmlns="http://www.w3.org/2000/svg" xmlns:xlink="http://www.w3.org/1999/xlink">
    <title>DD912ABE-0F17-4ABE-9251-868AEEF91D30</title>
    <g id="Sim-01---Genetically-Modified-Corn-Virtual-Lab" stroke="none" stroke-width="1" fill="none" fill-rule="evenodd">
        <g id="Timeline-finish" transform="translate(-626.000000, -175.000000)">
            <g id="Group-5" transform="translate(626.000000, 175.000000)">
                <path d="M12,0 C18.627417,-1.21743675e-15 24,5.372583 24,12 C24,18.627417 18.627417,24 12,24 C5.372583,24 8.11624501e-16,18.627417 0,12 C-8.11624501e-16,5.372583 5.372583,1.21743675e-15 12,0 Z" id="Path" fill="#F0F0F0"></path>
                <g id="noun-close-4213500" transform="translate(7.000000, 7.000000)" fill="#000000" fill-rule="nonzero">
                    <path d="M1.49102622,0.193810214 L1.57803961,0.270772195 L5.5,4.19292607 L9.42195449,0.270772195 C9.78289794,-0.090249821 10.3682058,-0.090249821 10.7292278,0.270772195 C11.0624744,0.604018754 11.0881087,1.12831489 10.8061898,1.49102622 L10.7292278,1.57803961 L6.80707393,5.5 L10.7292278,9.42195449 C11.0902498,9.78289794 11.0902498,10.3682058 10.7292278,10.7292278 C10.3959812,11.0624744 9.87168511,11.0881087 9.50897378,10.8061898 L9.42196039,10.7292278 L5.5,6.80707393 L1.57804551,10.7292278 C1.21710206,11.0902498 0.631794212,11.0902498 0.270772195,10.7292278 C-0.0624743636,10.3959812 -0.0881087143,9.87168511 0.193810214,9.50897378 L0.270772195,9.42196039 L4.19292607,5.5 L0.270772195,1.57804551 C-0.090249821,1.21710206 -0.090249821,0.631794212 0.270772195,0.270772195 C0.604018754,-0.0624743636 1.12831489,-0.0881087143 1.49102622,0.193810214 Z" id="Path"></path>
                </g>
            </g>
        </g>
    </g>
</svg>