
<svg xmlns="http://www.w3.org/2000/svg" version="1.1" xmlns:xlink="http://www.w3.org/1999/xlink" preserveAspectRatio="none" x="0px" y="0px" width="25px" height="25px" viewBox="0 0 25 25">
<defs>
<g id="Layer1_0_FILL">
<path fill="#666666" stroke="none" d="
M 25 12.5
Q 25 7.3 21.3 3.65 17.65 0 12.5 0 7.3 0 3.65 3.65 0 7.3 0 12.5 0 17.7 3.65 21.3 7.3 25 12.5 25 17.65 25 21.3 21.3 25 17.7 25 12.5 Z"/>
</g>

<path id="Symbol_1_0_Layer0_0_1_STROKES" stroke="#FFFFFF" stroke-width="2" stroke-linejoin="round" stroke-linecap="round" fill="none" d="
M 6.65 0
L 3.325 3.325 6.65 6.65
M 0 0
L 3.325 3.325 0 6.65"/>
</defs>

<g transform="matrix( 1, 0, 0, 1, 0,0) ">
<use xlink:href="#Layer1_0_FILL"/>
</g>

<g transform="matrix( 1.5403900146484375, 0, 0, 1.5403900146484375, 7.25,7.55) ">
<g transform="matrix( 1, 0, 0, 1, 0,0) ">
<use xlink:href="#Symbol_1_0_Layer0_0_1_STROKES"/>
</g>
</g>
</svg>
