<?xml version="1.0" encoding="UTF-8"?>
<svg width="48px" height="48px" viewBox="0 0 48 48" version="1.1" xmlns="http://www.w3.org/2000/svg" xmlns:xlink="http://www.w3.org/1999/xlink">
    <title>Icon</title>
    <g id="Sim-01---Genetically-Modified-Corn-Virtual-Lab" stroke="none" stroke-width="1" fill="none" fill-rule="evenodd">
        <g id="Transition" transform="translate(-286.000000, -223.000000)">
            <g id="info" transform="translate(201.835744, 152.201507)">
                <g id="Icon" transform="translate(84.164256, 70.798493)">
                    <rect id="Rectangle" fill-opacity="0" fill="#D8D8D8" x="0" y="0" width="48" height="48"></rect>
                    <g id="noun_Question_3835385" fill="#BA5B08">
                        <g id="Group" transform="translate(21.737948, 16.659790)">
                            <path d="M0,25.4583813 C2.76390606,27.6617488 6.26205192,28.9785617 10.0667491,28.9785617 C12.4511743,28.9785617 14.7156984,28.4602681 16.7552534,27.5315555 L23.8442522,30.3189333 L22.1174289,23.5835969 C24.6946848,20.7069436 26.2620519,16.9040576 26.2620519,12.7329104 C26.2620519,7.5722937 23.8615575,2.97584819 20.1223733,0 C20.2645241,1.02418775 20.3399258,2.06945443 20.3399258,3.13332016 C20.3399258,14.8333633 11.4004944,24.4403932 0,25.4583813 L0,25.4583813 Z" id="Path"></path>
                        </g>
                        <path d="M19.7317676,0 C30.6279357,0 39.4622991,8.86182792 39.4622991,19.7931103 C39.4622991,30.7231527 30.6279357,39.5849806 19.7317676,39.5849806 C16.8257108,39.5849806 14.0667491,38.9538528 11.5822002,37.8230305 L2.94561187,41.2179773 L5.04944376,33.0133158 C1.90976514,29.5080147 0,24.874371 0,19.7931103 C0,8.86182792 8.83436341,0 19.7317676,0 Z M14.908529,8.28773721 C17.23733,7.34290541 19.8974042,6.94860552 22.2484549,8.0447096 C24.3856613,9.03913887 25.710754,11.0441166 25.8170581,13.4024763 C25.9431397,16.192334 24.342398,18.6771672 22.1792336,20.2866051 C21.8170581,20.5891497 21.5772559,20.9524511 21.4252163,21.3975884 C21.276885,21.837766 21.4351051,22.2853831 21.4264524,22.7392 C21.4017305,23.9109402 20.4363412,24.8433726 19.2669963,24.8210538 C18.0988875,24.7987349 17.1668727,23.8278644 17.1915946,22.6548843 C17.2126082,21.6430959 17.065513,21.0380068 17.4091471,20.0286982 C17.8763906,18.6548483 18.5451174,17.8302904 19.645241,16.8804988 C20.6600742,16.1253774 21.6440049,14.9300783 21.5822002,13.5884668 C21.5488257,12.8383051 21.1520396,12.2232964 20.4709518,11.9071126 C19.2311496,11.330542 17.7292954,11.7335214 16.5290482,12.2307361 C14.0148331,13.269803 12.3720643,9.31564477 14.908529,8.28773721 L14.908529,8.28773721 Z M19.053152,26.9760638 C20.4932015,26.9760638 21.657602,28.1465641 21.657602,29.5898505 C21.657602,31.0343768 20.4932015,32.2036371 19.053152,32.2036371 C17.6131026,32.2036371 16.447466,31.0343768 16.447466,29.5898505 C16.447466,28.1465641 17.6131026,26.9760638 19.053152,26.9760638 Z" id="Shape"></path>
                    </g>
                </g>
            </g>
        </g>
    </g>
</svg>